<?xml version="1.0" encoding="UTF-8" standalone="no"?>
<!-- Created with Inkscape (http://www.inkscape.org/) -->

<svg
   xmlns:dc="http://purl.org/dc/elements/1.1/"
   xmlns:cc="http://creativecommons.org/ns#"
   xmlns:rdf="http://www.w3.org/1999/02/22-rdf-syntax-ns#"
   xmlns:svg="http://www.w3.org/2000/svg"
   xmlns="http://www.w3.org/2000/svg"
   xmlns:sodipodi="http://sodipodi.sourceforge.net/DTD/sodipodi-0.dtd"
   xmlns:inkscape="http://www.inkscape.org/namespaces/inkscape"
   width="278.09"
   height="278.35999"
   id="svg2"
   version="1.1"
   inkscape:version="0.48.4 r9939"
   sodipodi:docname="vequritas.svg">
  <defs
     id="defs4" />
  <sodipodi:namedview
     id="base"
     pagecolor="#ffffff"
     bordercolor="#666666"
     borderopacity="1.0"
     inkscape:pageopacity="0"
     inkscape:pageshadow="2"
     inkscape:zoom="1.4"
     inkscape:cx="138.49593"
     inkscape:cy="184.4119"
     inkscape:document-units="px"
     inkscape:current-layer="layer1"
     showgrid="false"
     inkscape:window-width="1855"
     inkscape:window-height="1056"
     inkscape:window-x="65"
     inkscape:window-y="24"
     inkscape:window-maximized="1"
     inkscape:showpageshadow="true"
     showborder="true" />
  <metadata
     id="metadata7">
    <rdf:RDF>
      <cc:Work
         rdf:about="">
        <dc:format>image/svg+xml</dc:format>
        <dc:type
           rdf:resource="http://purl.org/dc/dcmitype/StillImage" />
        <dc:title></dc:title>
      </cc:Work>
    </rdf:RDF>
  </metadata>
  <g
     inkscape:label="Layer 1"
     inkscape:groupmode="layer"
     id="layer1"
     transform="translate(0,-773.99174)">
    <g
       id="g4281"
       transform="translate(-192.85714,341.57143)">
      <path
         inkscape:connector-curvature="0"
         id="path2996"
         d="m 332.34018,438.44197 -115.66247,66.67007 -17.67767,66.67007 66.67007,115.66247 67.68022,17.17259 115.66247,-67.17514 15.15229,-67.68022 -65.65992,-113.64217 z"
         style="fill:none;stroke:#8b8987;stroke-width:2;stroke-linecap:butt;stroke-linejoin:miter;stroke-miterlimit:4;stroke-opacity:1;stroke-dasharray:none" />
      <path
         style="fill:none;stroke:#828080;stroke-width:2;stroke-linecap:butt;stroke-linejoin:miter;stroke-miterlimit:4;stroke-opacity:1;stroke-dasharray:none"
         d="M 447.74018,504.93353 332.1877,438.073 l -66.58132,18.00906 -66.86052,115.55248 18.95139,67.20383 115.98995,66.6081 66.19412,-20.70127 65.61549,-113.66783 z"
         id="path3766"
         inkscape:connector-curvature="0" />
      <path
         transform="matrix(0.89121434,0,0,0.89121434,38.294377,49.026824)"
         d="m 333.35035,436.67419 c 0,1.81315 -1.46985,3.283 -3.283,3.283 -1.81315,0 -3.28299,-1.46985 -3.28299,-3.283 0,-1.81314 1.46984,-3.28299 3.28299,-3.28299 1.81315,0 3.283,1.46985 3.283,3.28299 z"
         sodipodi:ry="3.2829957"
         sodipodi:rx="3.2829957"
         sodipodi:cy="436.67419"
         sodipodi:cx="330.06735"
         id="path3768"
         style="fill:#ff0000;stroke:#ff0000;stroke-width:0.89765161;stroke-miterlimit:4;stroke-opacity:1;stroke-dasharray:none"
         sodipodi:type="arc" />
      <path
         sodipodi:type="arc"
         style="fill:#ff0000;stroke:#ff0000;stroke-width:0.89765161;stroke-miterlimit:4;stroke-opacity:1;stroke-dasharray:none"
         id="path3824"
         sodipodi:cx="330.06735"
         sodipodi:cy="436.67419"
         sodipodi:rx="3.2829957"
         sodipodi:ry="3.2829957"
         d="m 333.35035,436.67419 c 0,1.81315 -1.46985,3.283 -3.283,3.283 -1.81315,0 -3.28299,-1.46985 -3.28299,-3.283 0,-1.81314 1.46984,-3.28299 3.28299,-3.28299 1.81315,0 3.283,1.46985 3.283,3.28299 z"
         transform="matrix(0.89121434,0,0,0.89121434,105.4066,66.914605)" />
      <path
         sodipodi:type="arc"
         style="fill:#ff0000;stroke:#ff0000;stroke-width:0.89765161;stroke-miterlimit:4;stroke-opacity:1;stroke-dasharray:none"
         id="path3824-2"
         sodipodi:cx="330.06735"
         sodipodi:cy="436.67419"
         sodipodi:rx="3.2829957"
         sodipodi:ry="3.2829957"
         d="m 333.35035,436.67419 c 0,1.81315 -1.46985,3.283 -3.283,3.283 -1.81315,0 -3.28299,-1.46985 -3.28299,-3.283 0,-1.81314 1.46984,-3.28299 3.28299,-3.28299 1.81315,0 3.283,1.46985 3.283,3.28299 z"
         transform="matrix(0.89121434,0,0,0.89121434,-28.089329,66.227591)" />
      <path
         transform="matrix(0.89121434,0,0,0.89121434,153.48559,115.97761)"
         d="m 333.35035,436.67419 c 0,1.81315 -1.46985,3.283 -3.283,3.283 -1.81315,0 -3.28299,-1.46985 -3.28299,-3.283 0,-1.81314 1.46984,-3.28299 3.28299,-3.28299 1.81315,0 3.283,1.46985 3.283,3.28299 z"
         sodipodi:ry="3.2829957"
         sodipodi:rx="3.2829957"
         sodipodi:cy="436.67419"
         sodipodi:cx="330.06735"
         id="path3844"
         style="fill:#ff0000;stroke:#ff0000;stroke-width:0.89765161;stroke-miterlimit:4;stroke-opacity:1;stroke-dasharray:none"
         sodipodi:type="arc" />
      <path
         sodipodi:type="arc"
         style="fill:#ff0000;stroke:#ff0000;stroke-width:0.89765161;stroke-miterlimit:4;stroke-opacity:1;stroke-dasharray:none"
         id="path3824-5"
         sodipodi:cx="330.06735"
         sodipodi:cy="436.67419"
         sodipodi:rx="3.2829957"
         sodipodi:ry="3.2829957"
         d="m 333.35035,436.67419 c 0,1.81315 -1.46985,3.283 -3.283,3.283 -1.81315,0 -3.28299,-1.46985 -3.28299,-3.283 0,-1.81314 1.46984,-3.28299 3.28299,-3.28299 1.81315,0 3.283,1.46985 3.283,3.28299 z"
         transform="matrix(0.89121434,0,0,0.89121434,171.01449,182.10672)" />
      <path
         sodipodi:type="arc"
         style="fill:#ff0000;stroke:#ff0000;stroke-width:0.89765161;stroke-miterlimit:4;stroke-opacity:1;stroke-dasharray:none"
         id="path3824-3"
         sodipodi:cx="330.06735"
         sodipodi:cy="436.67419"
         sodipodi:rx="3.2829957"
         sodipodi:ry="3.2829957"
         d="m 333.35035,436.67419 c 0,1.81315 -1.46985,3.283 -3.283,3.283 -1.81315,0 -3.28299,-1.46985 -3.28299,-3.283 0,-1.81314 1.46984,-3.28299 3.28299,-3.28299 1.81315,0 3.283,1.46985 3.283,3.28299 z"
         transform="matrix(0.89121434,0,0,0.89121434,154.87237,248.52426)" />
      <path
         sodipodi:type="arc"
         style="fill:#ff0000;stroke:#ff0000;stroke-width:0.89765161;stroke-miterlimit:4;stroke-opacity:1;stroke-dasharray:none"
         id="path3824-39"
         sodipodi:cx="330.06735"
         sodipodi:cy="436.67419"
         sodipodi:rx="3.2829957"
         sodipodi:ry="3.2829957"
         d="m 333.35035,436.67419 c 0,1.81315 -1.46985,3.283 -3.283,3.283 -1.81315,0 -3.28299,-1.46985 -3.28299,-3.283 0,-1.81314 1.46984,-3.28299 3.28299,-3.28299 1.81315,0 3.283,1.46985 3.283,3.28299 z"
         transform="matrix(0.89121434,0,0,0.89121434,105.85965,294.73873)" />
      <path
         sodipodi:type="arc"
         style="fill:#ff0000;stroke:#ff0000;stroke-width:0.89765161;stroke-miterlimit:4;stroke-opacity:1;stroke-dasharray:none"
         id="path3824-6"
         sodipodi:cx="330.06735"
         sodipodi:cy="436.67419"
         sodipodi:rx="3.2829957"
         sodipodi:ry="3.2829957"
         d="m 333.35035,436.67419 c 0,1.81315 -1.46985,3.283 -3.283,3.283 -1.81315,0 -3.28299,-1.46985 -3.28299,-3.283 0,-1.81314 1.46984,-3.28299 3.28299,-3.28299 1.81315,0 3.283,1.46985 3.283,3.28299 z"
         transform="matrix(0.89121434,0,0,0.89121434,39.189582,315.19433)" />
      <path
         sodipodi:type="arc"
         style="fill:#ff0000;stroke:#ff0000;stroke-width:0.89765161;stroke-miterlimit:4;stroke-opacity:1;stroke-dasharray:none"
         id="path3824-64"
         sodipodi:cx="330.06735"
         sodipodi:cy="436.67419"
         sodipodi:rx="3.2829957"
         sodipodi:ry="3.2829957"
         d="m 333.35035,436.67419 c 0,1.81315 -1.46985,3.283 -3.283,3.283 -1.81315,0 -3.28299,-1.46985 -3.28299,-3.283 0,-1.81314 1.46984,-3.28299 3.28299,-3.28299 1.81315,0 3.283,1.46985 3.283,3.28299 z"
         transform="matrix(0.89121434,0,0,0.89121434,-77.230498,115.43666)" />
      <path
         sodipodi:type="arc"
         style="fill:#ff0000;stroke:#ff0000;stroke-width:0.89765161;stroke-miterlimit:4;stroke-opacity:1;stroke-dasharray:none"
         id="path3824-34"
         sodipodi:cx="330.06735"
         sodipodi:cy="436.67419"
         sodipodi:rx="3.2829957"
         sodipodi:ry="3.2829957"
         d="m 333.35035,436.67419 c 0,1.81315 -1.46985,3.283 -3.283,3.283 -1.81315,0 -3.28299,-1.46985 -3.28299,-3.283 0,-1.81314 1.46984,-3.28299 3.28299,-3.28299 1.81315,0 3.283,1.46985 3.283,3.28299 z"
         transform="matrix(0.89121434,0,0,0.89121434,-95.413244,181.60165)" />
      <path
         sodipodi:type="arc"
         style="fill:#ff0000;stroke:#ff0000;stroke-width:0.89765161;stroke-miterlimit:4;stroke-opacity:1;stroke-dasharray:none"
         id="path3824-7"
         sodipodi:cx="330.06735"
         sodipodi:cy="436.67419"
         sodipodi:rx="3.2829957"
         sodipodi:ry="3.2829957"
         d="m 333.35035,436.67419 c 0,1.81315 -1.46985,3.283 -3.283,3.283 -1.81315,0 -3.28299,-1.46985 -3.28299,-3.283 0,-1.81314 1.46984,-3.28299 3.28299,-3.28299 1.81315,0 3.283,1.46985 3.283,3.28299 z"
         transform="matrix(0.89121434,0,0,0.89121434,-76.472884,249.28187)" />
      <path
         sodipodi:type="arc"
         style="fill:#ff0000;stroke:#ff0000;stroke-width:0.89765161;stroke-miterlimit:4;stroke-opacity:1;stroke-dasharray:none"
         id="path3824-58"
         sodipodi:cx="330.06735"
         sodipodi:cy="436.67419"
         sodipodi:rx="3.2829957"
         sodipodi:ry="3.2829957"
         d="m 333.35035,436.67419 c 0,1.81315 -1.46985,3.283 -3.283,3.283 -1.81315,0 -3.28299,-1.46985 -3.28299,-3.283 0,-1.81314 1.46984,-3.28299 3.28299,-3.28299 1.81315,0 3.283,1.46985 3.283,3.28299 z"
         transform="matrix(0.89121434,0,0,0.89121434,-28.743176,297.55729)" />
    </g>
  </g>
</svg>
